{
	"asset":{
		"generator":"Khronos glTF Blender I/O v4.1.63",
		"version":"2.0"
	},
	"scene":0,
	"scenes":[
		{
			"name":"Scene",
			"nodes":[
				0
			]
		}
	],
	"nodes":[
		{
			"mesh":0,
			"name":"Plane"
		}
	],
	"materials":[
		{
			"doubleSided":true,
			"name":"Material.010",
			"pbrMetallicRoughness":{
				"baseColorFactor":[
					0.19461800158023834,
					0.5647119879722595,
					0.10224200040102005,
					1
				],
				"metallicFactor":0,
				"roughnessFactor":0
			}
		},
		{
			"doubleSided":true,
			"name":"Material.009",
			"pbrMetallicRoughness":{
				"baseColorFactor":[
					0.11953800171613693,
					0.32314300537109375,
					0.09418299794197083,
					1
				],
				"metallicFactor":0,
				"roughnessFactor":0
			}
		},
		{
			"doubleSided":true,
			"name":"Material.008",
			"pbrMetallicRoughness":{
				"baseColorFactor":[
					0.09989870339632034,
					0.29177072644233704,
					0.09530750662088394,
					1
				],
				"metallicFactor":0,
				"roughnessFactor":0
			}
		}
	],
	"meshes":[
		{
			"name":"Plane",
			"primitives":[
				{
					"attributes":{
						"POSITION":0,
						"NORMAL":1,
						"TEXCOORD_0":2
					},
					"indices":3,
					"material":0
				},
				{
					"attributes":{
						"POSITION":4,
						"NORMAL":5,
						"TEXCOORD_0":6
					},
					"indices":7,
					"material":1
				},
				{
					"attributes":{
						"POSITION":8,
						"NORMAL":9,
						"TEXCOORD_0":10
					},
					"indices":11,
					"material":2
				}
			]
		}
	],
	"accessors":[
		{
			"bufferView":0,
			"componentType":5126,
			"count":517,
			"max":[
				0.8445779085159302,
				0.9787759184837341,
				0.03144383430480957
			],
			"min":[
				-0.8442528247833252,
				-0.9787759184837341,
				-0.33195123076438904
			],
			"type":"VEC3"
		},
		{
			"bufferView":1,
			"componentType":5126,
			"count":517,
			"type":"VEC3"
		},
		{
			"bufferView":2,
			"componentType":5126,
			"count":517,
			"type":"VEC2"
		},
		{
			"bufferView":3,
			"componentType":5123,
			"count":1107,
			"type":"SCALAR"
		},
		{
			"bufferView":4,
			"componentType":5126,
			"count":191,
			"max":[
				0.844679057598114,
				0.9787758588790894,
				0.0013516545295715332
			],
			"min":[
				-0.8441515564918518,
				-0.9787758588790894,
				-0.3314417004585266
			],
			"type":"VEC3"
		},
		{
			"bufferView":5,
			"componentType":5126,
			"count":191,
			"type":"VEC3"
		},
		{
			"bufferView":6,
			"componentType":5126,
			"count":191,
			"type":"VEC2"
		},
		{
			"bufferView":7,
			"componentType":5123,
			"count":378,
			"type":"SCALAR"
		},
		{
			"bufferView":8,
			"componentType":5126,
			"count":71,
			"max":[
				0.8444110155105591,
				0.4963357448577881,
				-0.00011414289474487305
			],
			"min":[
				-0.8444110155105591,
				-0.4961668848991394,
				-0.3309483528137207
			],
			"type":"VEC3"
		},
		{
			"bufferView":9,
			"componentType":5126,
			"count":71,
			"type":"VEC3"
		},
		{
			"bufferView":10,
			"componentType":5126,
			"count":71,
			"type":"VEC2"
		},
		{
			"bufferView":11,
			"componentType":5123,
			"count":156,
			"type":"SCALAR"
		}
	],
	"bufferViews":[
		{
			"buffer":0,
			"byteLength":6204,
			"byteOffset":0,
			"target":34962
		},
		{
			"buffer":0,
			"byteLength":6204,
			"byteOffset":6204,
			"target":34962
		},
		{
			"buffer":0,
			"byteLength":4136,
			"byteOffset":12408,
			"target":34962
		},
		{
			"buffer":0,
			"byteLength":2214,
			"byteOffset":16544,
			"target":34963
		},
		{
			"buffer":0,
			"byteLength":2292,
			"byteOffset":18760,
			"target":34962
		},
		{
			"buffer":0,
			"byteLength":2292,
			"byteOffset":21052,
			"target":34962
		},
		{
			"buffer":0,
			"byteLength":1528,
			"byteOffset":23344,
			"target":34962
		},
		{
			"buffer":0,
			"byteLength":756,
			"byteOffset":24872,
			"target":34963
		},
		{
			"buffer":0,
			"byteLength":852,
			"byteOffset":25628,
			"target":34962
		},
		{
			"buffer":0,
			"byteLength":852,
			"byteOffset":26480,
			"target":34962
		},
		{
			"buffer":0,
			"byteLength":568,
			"byteOffset":27332,
			"target":34962
		},
		{
			"buffer":0,
			"byteLength":312,
			"byteOffset":27900,
			"target":34963
		}
	],
	"buffers":[
		{
			"byteLength":28212,
			"uri":"nodeLogo.bin"
		}
	]
}
