{
	"asset":{
		"generator":"Khronos glTF Blender I/O v4.1.63",
		"version":"2.0"
	},
	"scene":0,
	"scenes":[
		{
			"name":"Scene",
			"nodes":[
				2
			]
		}
	],
	"nodes":[
		{
			"mesh":0,
			"name":"Cube",
			"rotation":[
				0,
				0.7071068286895752,
				0,
				0.7071067094802856
			],
			"scale":[
				0.26608988642692566,
				0.26608994603157043,
				0.26608988642692566
			],
			"translation":[
				0,
				1.3113170862197876,
				0
			]
		},
		{
			"children":[
				0
			],
			"name":"Scene"
		},
		{
			"children":[
				1
			],
			"name":"reactLogo.gltf",
			"translation":[
				0,
				-1.25,
				0
			]
		}
	],
	"materials":[
		{
			"name":"default",
			"pbrMetallicRoughness":{
				"baseColorFactor":[
					0.11953842639923096,
					0.7083757519721985,
					0.9646862745285034,
					1
				]
			}
		},
		{
			"name":"default.001",
			"pbrMetallicRoughness":{
				"baseColorFactor":[
					0.11953842639923096,
					0.7083757519721985,
					0.9646862745285034,
					1
				]
			}
		},
		{
			"name":"default.002",
			"pbrMetallicRoughness":{
				"baseColorFactor":[
					0.11953842639923096,
					0.7083757519721985,
					0.9646862745285034,
					1
				]
			}
		},
		{
			"name":"default.003",
			"pbrMetallicRoughness":{
				"baseColorFactor":[
					0.11953842639923096,
					0.7083757519721985,
					0.9646862745285034,
					1
				]
			}
		}
	],
	"meshes":[
		{
			"name":"Mesh_0",
			"primitives":[
				{
					"attributes":{
						"POSITION":0,
						"NORMAL":1,
						"TEXCOORD_0":2
					},
					"indices":3,
					"material":0
				},
				{
					"attributes":{
						"POSITION":4,
						"NORMAL":5,
						"TEXCOORD_0":6
					},
					"indices":7,
					"material":1
				},
				{
					"attributes":{
						"POSITION":8,
						"NORMAL":9,
						"TEXCOORD_0":10
					},
					"indices":11,
					"material":2
				},
				{
					"attributes":{
						"POSITION":12,
						"NORMAL":13,
						"TEXCOORD_0":14
					},
					"indices":15,
					"material":3
				}
			]
		}
	],
	"accessors":[
		{
			"bufferView":0,
			"componentType":5126,
			"count":156,
			"max":[
				0.8394157290458679,
				0.8394166827201843,
				0.8394166827201843
			],
			"min":[
				-0.8394166827201843,
				-0.8394157290458679,
				-0.824724555015564
			],
			"type":"VEC3"
		},
		{
			"bufferView":1,
			"componentType":5126,
			"count":156,
			"type":"VEC3"
		},
		{
			"bufferView":2,
			"componentType":5126,
			"count":156,
			"type":"VEC2"
		},
		{
			"bufferView":3,
			"componentType":5123,
			"count":780,
			"type":"SCALAR"
		},
		{
			"bufferView":4,
			"componentType":5126,
			"count":302,
			"max":[
				0.7393158078193665,
				4.434086322784424,
				3.1691339015960693
			],
			"min":[
				-0.06744707375764847,
				-4.573538780212402,
				-3.12781023979187
			],
			"type":"VEC3"
		},
		{
			"bufferView":5,
			"componentType":5126,
			"count":302,
			"type":"VEC3"
		},
		{
			"bufferView":6,
			"componentType":5126,
			"count":302,
			"type":"VEC2"
		},
		{
			"bufferView":7,
			"componentType":5123,
			"count":1614,
			"type":"SCALAR"
		},
		{
			"bufferView":8,
			"componentType":5126,
			"count":310,
			"max":[
				-0.11238721758127213,
				1.9721330404281616,
				5.1963276863098145
			],
			"min":[
				-0.9200305342674255,
				-2.164330244064331,
				-4.857162952423096
			],
			"type":"VEC3"
		},
		{
			"bufferView":9,
			"componentType":5126,
			"count":310,
			"type":"VEC3"
		},
		{
			"bufferView":10,
			"componentType":5126,
			"count":310,
			"type":"VEC2"
		},
		{
			"bufferView":11,
			"componentType":5123,
			"count":1668,
			"type":"SCALAR"
		},
		{
			"bufferView":12,
			"componentType":5126,
			"count":317,
			"max":[
				0.36769190430641174,
				4.368358612060547,
				3.216317653656006
			],
			"min":[
				-0.43900397419929504,
				-4.5734944343566895,
				-3.1601645946502686
			],
			"type":"VEC3"
		},
		{
			"bufferView":13,
			"componentType":5126,
			"count":317,
			"type":"VEC3"
		},
		{
			"bufferView":14,
			"componentType":5126,
			"count":317,
			"type":"VEC2"
		},
		{
			"bufferView":15,
			"componentType":5123,
			"count":1707,
			"type":"SCALAR"
		}
	],
	"bufferViews":[
		{
			"buffer":0,
			"byteLength":1872,
			"byteOffset":0,
			"target":34962
		},
		{
			"buffer":0,
			"byteLength":1872,
			"byteOffset":1872,
			"target":34962
		},
		{
			"buffer":0,
			"byteLength":1248,
			"byteOffset":3744,
			"target":34962
		},
		{
			"buffer":0,
			"byteLength":1560,
			"byteOffset":4992,
			"target":34963
		},
		{
			"buffer":0,
			"byteLength":3624,
			"byteOffset":6552,
			"target":34962
		},
		{
			"buffer":0,
			"byteLength":3624,
			"byteOffset":10176,
			"target":34962
		},
		{
			"buffer":0,
			"byteLength":2416,
			"byteOffset":13800,
			"target":34962
		},
		{
			"buffer":0,
			"byteLength":3228,
			"byteOffset":16216,
			"target":34963
		},
		{
			"buffer":0,
			"byteLength":3720,
			"byteOffset":19444,
			"target":34962
		},
		{
			"buffer":0,
			"byteLength":3720,
			"byteOffset":23164,
			"target":34962
		},
		{
			"buffer":0,
			"byteLength":2480,
			"byteOffset":26884,
			"target":34962
		},
		{
			"buffer":0,
			"byteLength":3336,
			"byteOffset":29364,
			"target":34963
		},
		{
			"buffer":0,
			"byteLength":3804,
			"byteOffset":32700,
			"target":34962
		},
		{
			"buffer":0,
			"byteLength":3804,
			"byteOffset":36504,
			"target":34962
		},
		{
			"buffer":0,
			"byteLength":2536,
			"byteOffset":40308,
			"target":34962
		},
		{
			"buffer":0,
			"byteLength":3414,
			"byteOffset":42844,
			"target":34963
		}
	],
	"buffers":[
		{
			"byteLength":46260,
			"uri":"reactLogoLowpoly.bin"
		}
	]
}
