{
	"asset":{
		"generator":"Khronos glTF Blender I/O v4.1.63",
		"version":"2.0"
	},
	"scene":0,
	"scenes":[
		{
			"name":"Scene",
			"nodes":[
				2
			]
		}
	],
	"nodes":[
		{
			"mesh":0,
			"name":"Cube",
			"rotation":[
				0,
				0.7071068286895752,
				0,
				0.7071067094802856
			],
			"scale":[
				0.26608991622924805,
				0.26608994603157043,
				0.26608991622924805
			],
			"translation":[
				0,
				1.3113170862197876,
				0
			]
		},
		{
			"children":[
				0
			],
			"name":"Scene"
		},
		{
			"children":[
				1
			],
			"name":"reactLogo.gltf",
			"translation":[
				0,
				-1.25,
				0
			]
		}
	],
	"materials":[
		{
			"name":"default",
			"pbrMetallicRoughness":{
				"baseColorFactor":[
					0.11953842639923096,
					0.7083757519721985,
					0.9646862745285034,
					1
				]
			}
		},
		{
			"name":"default.001",
			"pbrMetallicRoughness":{
				"baseColorFactor":[
					0.11953842639923096,
					0.7083757519721985,
					0.9646862745285034,
					1
				]
			}
		},
		{
			"name":"default.002",
			"pbrMetallicRoughness":{
				"baseColorFactor":[
					0.11953842639923096,
					0.7083757519721985,
					0.9646862745285034,
					1
				]
			}
		},
		{
			"name":"default.003",
			"pbrMetallicRoughness":{
				"baseColorFactor":[
					0.11953842639923096,
					0.7083757519721985,
					0.9646862745285034,
					1
				]
			}
		}
	],
	"meshes":[
		{
			"name":"Mesh_0",
			"primitives":[
				{
					"attributes":{
						"POSITION":0,
						"NORMAL":1,
						"TEXCOORD_0":2
					},
					"indices":3,
					"material":0
				},
				{
					"attributes":{
						"POSITION":4,
						"NORMAL":5,
						"TEXCOORD_0":6
					},
					"indices":7,
					"material":1
				},
				{
					"attributes":{
						"POSITION":8,
						"NORMAL":9,
						"TEXCOORD_0":10
					},
					"indices":11,
					"material":2
				},
				{
					"attributes":{
						"POSITION":12,
						"NORMAL":13,
						"TEXCOORD_0":14
					},
					"indices":15,
					"material":3
				}
			]
		}
	],
	"accessors":[
		{
			"bufferView":0,
			"componentType":5126,
			"count":201,
			"max":[
				0.8394157290458679,
				0.8394166827201843,
				0.8394166827201843
			],
			"min":[
				-0.8394166827201843,
				-0.8394157290458679,
				-0.8394157290458679
			],
			"type":"VEC3"
		},
		{
			"bufferView":1,
			"componentType":5126,
			"count":201,
			"type":"VEC3"
		},
		{
			"bufferView":2,
			"componentType":5126,
			"count":201,
			"type":"VEC2"
		},
		{
			"bufferView":3,
			"componentType":5123,
			"count":1032,
			"type":"SCALAR"
		},
		{
			"bufferView":4,
			"componentType":5126,
			"count":605,
			"max":[
				0.7395327687263489,
				4.434086322784424,
				3.1691339015960693
			],
			"min":[
				-0.06744707375764847,
				-4.573538780212402,
				-3.1329879760742188
			],
			"type":"VEC3"
		},
		{
			"bufferView":5,
			"componentType":5126,
			"count":605,
			"type":"VEC3"
		},
		{
			"bufferView":6,
			"componentType":5126,
			"count":605,
			"type":"VEC2"
		},
		{
			"bufferView":7,
			"componentType":5123,
			"count":3333,
			"type":"SCALAR"
		},
		{
			"bufferView":8,
			"componentType":5126,
			"count":607,
			"max":[
				-0.11214502155780792,
				1.9769164323806763,
				5.1963276863098145
			],
			"min":[
				-0.9200305342674255,
				-2.1777079105377197,
				-4.857162952423096
			],
			"type":"VEC3"
		},
		{
			"bufferView":9,
			"componentType":5126,
			"count":607,
			"type":"VEC3"
		},
		{
			"bufferView":10,
			"componentType":5126,
			"count":607,
			"type":"VEC2"
		},
		{
			"bufferView":11,
			"componentType":5123,
			"count":3336,
			"type":"SCALAR"
		},
		{
			"bufferView":12,
			"componentType":5126,
			"count":604,
			"max":[
				0.36820587515830994,
				4.374321460723877,
				3.216317653656006
			],
			"min":[
				-0.43951576948165894,
				-4.5734944343566895,
				-3.1601645946502686
			],
			"type":"VEC3"
		},
		{
			"bufferView":13,
			"componentType":5126,
			"count":604,
			"type":"VEC3"
		},
		{
			"bufferView":14,
			"componentType":5126,
			"count":604,
			"type":"VEC2"
		},
		{
			"bufferView":15,
			"componentType":5123,
			"count":3327,
			"type":"SCALAR"
		}
	],
	"bufferViews":[
		{
			"buffer":0,
			"byteLength":2412,
			"byteOffset":0,
			"target":34962
		},
		{
			"buffer":0,
			"byteLength":2412,
			"byteOffset":2412,
			"target":34962
		},
		{
			"buffer":0,
			"byteLength":1608,
			"byteOffset":4824,
			"target":34962
		},
		{
			"buffer":0,
			"byteLength":2064,
			"byteOffset":6432,
			"target":34963
		},
		{
			"buffer":0,
			"byteLength":7260,
			"byteOffset":8496,
			"target":34962
		},
		{
			"buffer":0,
			"byteLength":7260,
			"byteOffset":15756,
			"target":34962
		},
		{
			"buffer":0,
			"byteLength":4840,
			"byteOffset":23016,
			"target":34962
		},
		{
			"buffer":0,
			"byteLength":6666,
			"byteOffset":27856,
			"target":34963
		},
		{
			"buffer":0,
			"byteLength":7284,
			"byteOffset":34524,
			"target":34962
		},
		{
			"buffer":0,
			"byteLength":7284,
			"byteOffset":41808,
			"target":34962
		},
		{
			"buffer":0,
			"byteLength":4856,
			"byteOffset":49092,
			"target":34962
		},
		{
			"buffer":0,
			"byteLength":6672,
			"byteOffset":53948,
			"target":34963
		},
		{
			"buffer":0,
			"byteLength":7248,
			"byteOffset":60620,
			"target":34962
		},
		{
			"buffer":0,
			"byteLength":7248,
			"byteOffset":67868,
			"target":34962
		},
		{
			"buffer":0,
			"byteLength":4832,
			"byteOffset":75116,
			"target":34962
		},
		{
			"buffer":0,
			"byteLength":6654,
			"byteOffset":79948,
			"target":34963
		}
	],
	"buffers":[
		{
			"byteLength":86604,
			"uri":"reactLogo.bin"
		}
	]
}
